<?xml version="1.0" encoding="iso-8859-1"?>
<!-- Uploaded to: SVG Repo, www.svgrepo.com, Generator: SVG Repo Mixer Tools -->
<svg fill="#000000" height="800px" width="800px" version="1.1" id="Layer_1" xmlns="http://www.w3.org/2000/svg" xmlns:xlink="http://www.w3.org/1999/xlink" 
	 viewBox="0 0 512.001 512.001" xml:space="preserve">
<g>
	<g>
		<path d="M400.683,217.232l13.03-173.797c0.026-0.343,0.039-0.686,0.039-1.03C413.752,19.023,396.242,0,374.72,0H137.279
			c-21.521,0-39.031,19.023-39.031,42.405c0,0.344,0.014,0.687,0.039,1.03l13.03,173.797c-12.65,6.931-20.985,20.353-20.985,35.451
			v18.655c0,2.576,0.077,5.166,0.231,7.7c0,0.001,0,0.003,0,0.003c0,0.003,0,0.004,0,0.005c0,0.007,0,0.015,0.001,0.022
			c0,0.004,0.001,0.01,0.001,0.014c3.446,58.427,45.47,106.021,100.408,118.617l-12.258,98.84c-0.486,3.917,0.732,7.853,3.347,10.81
			c2.612,2.957,6.37,4.651,10.316,4.651h127.243c3.946,0,7.704-1.693,10.316-4.651c2.613-2.957,3.832-6.894,3.347-10.81
			l-12.258-98.84c54.937-12.595,96.962-60.189,100.408-118.616c0-0.005,0.001-0.01,0.001-0.015c0-0.007,0-0.015,0.001-0.022
			c0-0.001,0-0.003,0-0.005v-0.003c0.154-2.533,0.231-5.124,0.231-7.7v-18.657C421.67,237.585,413.335,224.163,400.683,217.232z
			 M137.279,27.536h237.442c6.116,0,11.301,6.56,11.491,14.425l-0.69,9.202H126.479l-0.69-9.202
			C125.978,34.096,131.163,27.536,137.279,27.536z M383.457,78.697l-10.015,133.576H138.558L128.543,78.697H383.457z
			 M207.96,484.464l10.355-83.488h75.372l10.355,83.488H207.96z M394.134,264.469H359.49c-7.603,0-13.768,6.164-13.768,13.768
			s6.165,13.768,13.768,13.768h32.551c-9.584,46.683-50.998,81.436-100.01,81.436H219.97c-49.014,0-90.426-34.753-100.01-81.437
			h145.908c7.603,0,13.768-6.164,13.768-13.768s-6.165-13.768-13.768-13.768H117.868v-11.785c0-6.213,4.415-11.539,10.494-12.66
			c0.766-0.142,1.561-0.212,2.365-0.212h250.548c0.804,0,1.6,0.072,2.361,0.212c6.083,1.122,10.498,6.448,10.498,12.661V264.469z"/>
	</g>
</g>
<g>
	<g>
		<path d="M314.916,264.467h-4.13c-7.603,0-13.768,6.164-13.768,13.768s6.165,13.768,13.768,13.768h4.13
			c7.603,0,13.768-6.164,13.768-13.768S322.519,264.467,314.916,264.467z"/>
	</g>
</g>
<g>
	<g>
		<path d="M176.835,99.253h-17.898c-7.603,0-13.768,6.164-13.768,13.768s6.165,13.768,13.768,13.768h17.898
			c7.603,0,13.768-6.164,13.768-13.768S184.438,99.253,176.835,99.253z"/>
	</g>
</g>
</svg>